<?xml version="1.0" encoding="UTF-8" standalone="no"?>
<svg
   xmlns:dc="http://purl.org/dc/elements/1.1/"
   xmlns:cc="http://creativecommons.org/ns#"
   xmlns:rdf="http://www.w3.org/1999/02/22-rdf-syntax-ns#"
   xmlns:svg="http://www.w3.org/2000/svg"
   xmlns="http://www.w3.org/2000/svg"
   xmlns:sodipodi="http://sodipodi.sourceforge.net/DTD/sodipodi-0.dtd"
   xmlns:inkscape="http://www.inkscape.org/namespaces/inkscape"
   version="1.1"
   id="svg2"
   width="3116.8"
   height="748.79999"
   viewBox="0 0 3116.8 748.79999"
   sodipodi:docname="sharknado.svg"
   inkscape:version="1.0.2 (e86c870879, 2021-01-15)">
  <metadata
     id="metadata8">
    <rdf:RDF>
      <cc:Work
         rdf:about="">
        <dc:format>image/svg+xml</dc:format>
        <dc:type
           rdf:resource="http://purl.org/dc/dcmitype/StillImage" />
        <dc:title></dc:title>
      </cc:Work>
    </rdf:RDF>
  </metadata>
  <defs
     id="defs6" />
  <sodipodi:namedview
     pagecolor="#ffffff"
     bordercolor="#666666"
     borderopacity="1"
     objecttolerance="10"
     gridtolerance="10"
     guidetolerance="10"
     inkscape:pageopacity="0"
     inkscape:pageshadow="2"
     inkscape:window-width="1686"
     inkscape:window-height="839"
     id="namedview4"
     showgrid="false"
     inkscape:zoom="0.38950205"
     inkscape:cx="1558.4"
     inkscape:cy="374.39999"
     inkscape:window-x="513"
     inkscape:window-y="285"
     inkscape:window-maximized="0"
     inkscape:current-layer="g10" />
  <g
     inkscape:groupmode="layer"
     inkscape:label="Image"
     id="g10">
    <path
       style="fill:#020202;stroke:none;stroke-width:1.06667"
       d="m 498.56738,2.2978582 c -2.2368,9.3951148 -1.56267,18.6261328 -5.6672,27.7333328 -16.94187,37.585066 -54.61333,68.119999 -82.85013,97.066669 -22.0512,22.6048 -46.1216,45.55093 -64.3136,71.46666 -29.1488,41.5232 -48.26667,100.62614 -38.6784,151.46667 7.6832,40.7392 39.4976,70.39146 69.90933,95.73653 52.656,43.88373 118.00107,85.9328 128.61013,159.1968 2.27307,15.69707 4.33814,36.26453 -2.24106,51.2 -16.10774,36.57066 -65.21174,35.9328 -97.56907,27.84533 -58.26133,-14.56213 -116.8704,-56.45333 -135.7376,-115.312 -7.42613,-23.16906 -8.4256,-48.01386 -15.11787,-71.46666 -10.432,-36.55574 -29.98613,-67.75787 -53.73546,-97.06667 -10.4256,-12.86613 -25.76427,-36.14506 -41.80907,-41.6 29.17333,89.68747 34.86507,215.09547 -50.13333,276.53866 -21.74646,15.71947 -48.60832,25.5296 -74.66667,31.27574 -10.24597,2.2592 -20.9808,1.56373 -30.9333324,4.71893 6.7628054,14.16107 36.1004824,20.51093 50.1333324,24.53333 41.22251,11.81654 91.73547,5.98294 133.33333,-1.51893 15.40587,-2.77867 31.36,-8.224 46.93334,-9.4464 10.3488,-0.8128 24.17493,10.22507 33.06666,14.89067 21.24267,11.1456 43.67254,20.31786 66.13334,28.68906 82.87146,30.88427 182.928,25.18827 250.66666,-35.99573 14.54614,-13.13813 27.69067,-28.3808 38.672,-44.61867 8.58667,-12.69866 15.90614,-26.71039 19.82827,-41.59999 8.352,-31.70454 -2.57813,-64.60694 -18.82027,-91.73334 -27.7824,-46.4 -68.2272,-85.47626 -104.84266,-124.8 -6.55894,-7.04426 -13.08267,-14.06719 -19.4048,-21.33333 -25.4528,-29.2544 -68.1088,-73.61706 -42.29547,-115.2 21.82827,-35.16586 61.25867,-31.60853 96.99627,-26.96746 11.83146,1.53706 28.93546,1.81333 38.1568,10.46506 3.1328,2.93974 3.2416,7.75467 6.8,10.25387 3.49226,2.45227 10.3488,1.1616 12.41706,5.47947 2.0032,4.18133 -3.2,9.0624 -0.10026,13.10613 3.78986,4.94613 12.60586,1.23733 16.40426,6.07787 3.16694,4.0352 -3.392,9.72906 0.5696,14.05013 4.0256,4.3904 11.92747,0.7936 15.72907,5.41653 3.4368,4.17814 -3.02933,10.41174 1.33333,14.53654 4.6144,4.3616 13.30347,0.368 18.1184,4.9024 4.22187,3.97653 -2.55786,10.256 1.27254,14.42133 4.352,4.73493 13.26186,0.8608 18.10773,4.78293 5.03253,4.07254 -1.92427,10.24747 1.984,14.60694 4.3744,4.87893 13.09547,1.18933 18.1856,5.0176 4.95147,3.72266 -2.2784,10.7616 2.06613,15.0592 4.71147,4.66026 14.72534,0.0437 18.87894,5.52106 3.34186,4.4064 -3.63094,11.5552 3.03466,14.58347 7.17014,3.25866 17.7632,2.03306 25.44214,2.02026 31.51786,-0.0501 63.04533,-14.72639 90.66666,-28.53653 26.17707,-13.08906 51.39734,-28.09813 75.73335,-44.352 5.6437,-3.7696 21.6053,-11.83146 20.8363,-19.91146 -0.7083,-7.44 -13.2811,-14.01707 -18.703,-17.97227 -19.99998,-14.58987 -40.62931,-28.192 -61.86665,-40.90773 -90.08746,-53.94134 -199.59146,-83.27894 -304,-91.52 -0.004,-39.63605 -9.5872,-78.765336 -31.6448,-112.000002 -6.44693,-9.7136 -14.02026,-23.7309865 -24.88853,-28.7999998 M 1582.3007,367.09786 v 376.53332 h 85.3334 l 2.1333,-110.93333 c 26.3253,26.3264 50.56,54.6848 76.8,81.06667 8.3093,8.35626 18.1227,24.63253 29.1093,29.22346 4.896,2.05014 12.576,0.6432 17.824,0.6432 h 38.4 135.4667 c 0,-35.90933 1.0667,-71.91253 1.0667,-107.73333 0,-21.79093 -2.2507,-48.09493 7.232,-68.26666 16.6506,-35.42827 62.432,-50.89814 88.128,-14.752 3.232,4.55146 2.7733,11.5776 2.7733,16.88533 v 36.26667 c 0,45.89759 1.0667,91.67146 1.0667,137.59999 h 90.6666 c -3.0506,-16.416 -1.0666,-34.528 -1.0666,-51.2 0,-15.31733 -1.056,-30.61973 -1.0667,-45.86666 -0.021,-60.9344 11.5733,-150.016 -60.8,-175.25867 -9.4507,-3.296 -19.872,-4.992 -29.8667,-5.008 -14.2933,-0.0224 -27.9573,1.55307 -41.6,6.04907 -22.3893,7.37493 -37.4186,22.90667 -56.5333,35.55093 v -35.2 h -86.4 v 268.8 l -106.6667,-107.73333 -25.6106,-26.66667 -7.8507,-10.66666 7.8613,-9.6 24.5334,-23.42507 60.8,-56.3936 35.2,-33.248 -71.4667,-1.06667 -27.7333,0.2112 -26.6667,25.20747 -74.6667,72.71467 V 418.29785 380.96452 l -1.7066,-12.77013 -22.8267,-1.09653 h -61.8667 m 1117.8667,0 v 141.86666 c -17.728,-15.488 -34.1333,-32.05227 -57.6,-38.2336 -14.176,-3.73333 -29.1947,-3.53493 -43.7333,-3.36213 -50.5387,0.6016 -87.5627,44.84693 -99.0614,90.6624 -15.8186,62.97813 -3.1893,149.12213 60.6614,181.04533 12.7466,6.3744 25.536,8.544 39.4666,10.19306 13.2054,1.56267 27.648,0.17067 40.5334,-3.2224 24.3946,-6.42026 40.8,-23.26613 59.7333,-38.68266 v 36.26666 h 85.3333 V 367.09786 h -85.3333 m -1879.46669,42.66666 -13.86666,23.46667 -21.33334,-19.2 c -2.59733,4.4672 -7.78346,25.80906 -13.8976,24.92693 -6.01386,-0.86827 -8.99413,-12.3616 -12.76906,-16.3936 -3.45814,9.0304 -6.98134,41.984 -19.2,39.46667 -4.6944,37.14666 -2.13334,75.63946 -2.13334,113.06666 0,56.08213 -1.06666,112.3616 -1.06666,168.53333 h 86.4 c 0,-35.9456 1.06666,-71.85493 1.06666,-107.73333 0,-22.30826 -1.83893,-48.656 7.8112,-69.33333 16.03414,-34.3552 65.16374,-50.48747 88.46405,-12.8 2.976,4.81387 1.8581,11.64907 1.8581,17.06667 v 36.26666 c 0,45.50187 1.0667,90.97493 1.0667,136.53333 h 90.66664 c 0,-41.1776 -2.1333,-82.53973 -2.1333,-123.73333 0,-28.31466 2.9418,-61.16906 -5.375,-88.53333 -16.60584,-54.63253 -72.57704,-76.24107 -124.75839,-59.7024 -23.38026,7.40907 -38.5632,23.66293 -58.66666,36.23573 l -1.0624,-66.13333 -1.07094,-32 m 2145.06669,55.91893 c -45.5467,5.9776 -84.608,12.1728 -117.152,48.6144 -22.0907,24.74347 -28.9813,57.33014 -28.9813,89.6 0,43.63947 8.736,83.10933 43.7333,112.5984 36.9387,31.12213 88.9707,38.43093 135.4667,32.16747 30.8586,-4.15787 63.744,-18.18987 85.152,-41.3152 44.2453,-47.78454 47.9893,-135.57547 8.9813,-187.71733 -18.912,-25.2832 -47.7867,-41.52214 -78.1333,-48.928 -15.0614,-3.67787 -33.6107,-7.04854 -49.0667,-5.01974 m -1899.7333,78.48107 c 9.6853,-4.03307 18.7733,-8.816 28.8,-12.08533 29.376,-9.5744 64.32,-13.74614 94.9333,-8.7808 16.0213,2.59946 32.864,12.17706 38.2933,28.3328 1.9094,5.712 1.1734,12.19093 1.1734,18.13333 -18.4854,0 -37.0134,1.2832 -55.4667,2.09173 -37.088,1.62347 -76.4373,1.85707 -106.6667,27.056 -39.2864,32.75093 -30.5312,111.22027 12.8,136.31787 33.4294,19.3632 80.9707,20.3584 115.2,1.66826 13.2054,-7.20853 23.6054,-17.9424 34.1334,-28.4672 v 35.2 h 89.6 c 0,-49.78986 0.1706,-99.62773 -1.056,-149.33333 -0.7894,-32.21973 -1.8987,-67.9552 -25.6534,-92.8 -41.504,-43.40906 -111.9786,-35.9072 -166.3573,-32.096 -13.5893,0.9536 -27.1253,2.48534 -40.5333,5.0144 -4.7574,0.896 -11.9574,1.4464 -15.456,5.14027 -3.6523,3.85813 -3.4806,12.6272 -3.7024,17.67467 -0.6816,15.58293 -0.042,31.3344 -0.042,46.93333 m 389.3333,-28.8 v -42.66667 h -86.4 v 270.93333 h 85.3333 c 6.5174,-51.55733 -4.736,-105.4944 4.7574,-156.79999 4.9173,-26.55254 30.9226,-48.54614 57.1093,-51.9584 19.872,-2.5888 36.4587,5.41866 55.4667,8.22506 l -1.0663,-75.73333 c -24.32,0 -51.3813,-1.74933 -73.6,9.94133 -16.9067,8.89494 -29.248,23.92214 -41.6,38.05867 m 755.2,28.8 c 9.6853,-4.032 18.7733,-8.816 28.8,-12.08533 7.6587,-2.49814 15.5733,-4.26454 23.4667,-5.83467 31.552,-6.27307 94.72,-14.99947 109.2693,24.32 2.2613,6.1088 1.664,12.8064 1.664,19.2 -18.496,0 -37.0027,1.2832 -55.4667,2.09173 -36.5866,1.60214 -75.5413,1.70987 -105.6,26.1408 -41.0773,33.3824 -32.0853,112.32853 12.8,137.86133 32.3627,18.40747 78.6987,19.61174 112,2.09814 14.0374,-7.38134 25.1627,-18.42667 36.2667,-29.52534 v 35.2 h 89.6 c 0,-48 -0.832,-96.0896 -1.0667,-143.99999 -0.16,-34.368 -1.2586,-72.8544 -26.7093,-99.19574 -41.056,-42.49386 -111.872,-34.7776 -165.2907,-31.0336 -13.568,0.95147 -27.1786,2.31574 -40.5333,5.00267 -4.832,0.97173 -11.9147,1.46453 -15.5413,5.152 -3.9894,4.05867 -3.6374,13.39947 -3.6587,18.74133 -0.075,15.28854 0,30.57814 0,45.86667 m 749.8667,-15.69173 c 36.64,-4.7616 59.2426,22.0672 65.4826,55.1584 8.1067,43.01546 -2.4106,98.08853 -53.7493,104.22826 -27.5947,3.30027 -48.608,-14.0128 -56.8853,-39.1616 -13.472,-40.93226 -8.5654,-113.24373 45.152,-120.22506 m -327.4667,1.0624 c 6.656,-0.79574 13.6533,-0.47147 20.2667,0.4736 40.2026,5.744 44.8,49.63306 44.8,82.4224 0,23.82933 -4.128,50.89279 -24.5334,66.63253 -8.3093,6.4064 -19.7866,7.65013 -29.8666,8.79573 -24.5334,2.78613 -45.2267,-13.81973 -53.28,-35.9616 -14.6347,-40.288 -10.6667,-115.98933 42.6133,-122.36266 m -1403.7333,92.496 c 0,13.34399 0.1813,25.87946 -5.1947,38.39999 -13.184,30.688 -59.616,49.17867 -85.2693,21.29067 -16.9494,-18.416 -8.192,-47.74613 15.7973,-53.95413 9.1413,-2.36693 18.336,-3.22987 27.7333,-3.6448 15.6267,-0.69013 31.2747,-2.09173 46.9334,-2.09173 m 1144.5333,0 c 0,12.91946 0.053,25.15306 -4.9067,37.33333 -13.1413,32.24853 -60.6506,50.27626 -86.624,21.31733 -16.5333,-18.41813 -5.8773,-46.95787 16.864,-53.14773 8.9814,-2.4448 18.496,-3.00373 27.7334,-3.4112 15.6266,-0.69013 31.2746,-2.09173 46.9333,-2.09173 z"
       id="path14" />
  </g>
</svg>
