<?xml version="1.0" standalone="no"?>
<!DOCTYPE svg PUBLIC "-//W3C//DTD SVG 20010904//EN"
 "http://www.w3.org/TR/2001/REC-SVG-20010904/DTD/svg10.dtd">
<svg version="1.0" xmlns="http://www.w3.org/2000/svg"
 width="3180.000000pt" height="3180.000000pt" viewBox="0 0 3180.000000 3180.000000"
 preserveAspectRatio="xMidYMid meet">

<g transform="translate(0.000000,3180.000000) scale(0.100000,-0.100000)"
fill="#000000" stroke="none">
<path d="M6616 24838 c-155 -17 -355 -87 -504 -175 -292 -172 -510 -454 -606
-785 -27 -95 -56 -288 -56 -378 0 -134 46 -366 96 -477 l23 -53 10350 0 10350
0 14 28 c24 46 56 152 78 257 27 129 29 350 5 477 -58 304 -189 548 -403 751
-175 166 -391 279 -656 344 -69 17 -510 18 -9342 19 -5493 1 -9302 -2 -9349
-8z"/>
<path d="M6202 21881 c-17 -10 -18 -9 131 -265 60 -105 121 -211 135 -236 13
-25 39 -70 57 -100 83 -141 157 -270 335 -580 228 -396 365 -635 430 -745 26
-44 93 -161 150 -260 57 -99 122 -211 145 -250 l41 -70 295 -6 c162 -3 2056
-6 4209 -8 2576 -1 3918 -6 3925 -12 12 -12 13 -9 -202 -384 -150 -263 -343
-603 -704 -1240 -84 -148 -234 -414 -334 -590 -100 -176 -208 -367 -240 -425
-32 -58 -111 -197 -175 -310 -104 -181 -349 -617 -418 -740 -14 -25 -36 -62
-49 -82 -12 -21 -23 -40 -23 -43 0 -2 -13 -26 -28 -52 -16 -27 -61 -104 -99
-173 -94 -166 -291 -515 -473 -835 -81 -143 -189 -334 -240 -425 -51 -91 -158
-280 -237 -420 -129 -226 -266 -469 -468 -825 -34 -60 -153 -271 -264 -467
l-202 -357 17 -33 c16 -31 53 -96 177 -311 124 -213 246 -424 264 -457 11 -19
70 -120 130 -225 177 -305 374 -647 399 -690 12 -22 88 -155 169 -295 81 -140
179 -310 217 -377 39 -67 76 -127 83 -133 17 -15 21 -8 220 345 87 154 204
361 260 460 56 99 146 259 200 355 54 96 132 233 173 304 83 145 86 151 185
326 38 69 107 190 152 270 45 80 92 162 103 182 33 59 327 579 415 733 44 77
120 212 169 300 50 88 105 185 123 215 17 30 67 118 110 195 43 77 125 223
183 325 58 102 133 235 167 295 34 61 138 243 230 405 92 162 180 318 195 345
15 28 111 196 212 375 281 496 483 853 613 1085 65 116 173 307 240 425 267
472 349 616 500 885 183 324 163 289 306 543 62 108 158 278 214 377 56 99
163 288 237 420 75 132 195 346 268 475 72 129 137 241 144 248 9 10 544 14
2624 19 l2613 6 83 141 c45 78 94 161 108 186 14 25 135 236 270 470 135 234
332 576 438 760 106 184 268 466 361 627 93 161 169 298 169 306 0 8 -7 18
-16 21 -25 9 -19407 7 -19422 -3z"/>
<path d="M8265 18290 c-6 -10 12 -49 50 -110 24 -38 48 -79 330 -570 184 -320
244 -424 502 -870 72 -124 175 -301 229 -395 54 -93 120 -208 147 -255 27 -47
127 -220 222 -385 235 -409 360 -625 574 -995 357 -615 410 -707 536 -925 70
-121 191 -331 268 -467 86 -150 148 -247 157 -247 9 0 84 121 194 317 99 174
245 432 324 572 80 140 223 395 320 565 96 171 203 360 237 420 34 61 110 193
167 295 58 102 161 284 230 405 68 121 169 299 223 395 54 96 113 200 130 230
18 30 84 147 147 260 63 113 205 365 315 560 110 195 289 513 398 705 108 193
213 376 232 408 19 31 33 65 31 75 -3 16 -155 17 -2980 20 -1920 1 -2979 -1
-2983 -8z"/>
<path d="M19598 18283 c-9 -10 -48 -76 -88 -147 -104 -187 -231 -411 -320
-566 -42 -74 -107 -187 -142 -250 -65 -114 -117 -206 -363 -640 -162 -285
-298 -526 -515 -910 -407 -718 -574 -1014 -748 -1320 -101 -179 -197 -347
-212 -375 -15 -27 -111 -196 -212 -375 -102 -179 -256 -451 -343 -605 -457
-808 -518 -917 -787 -1390 -112 -198 -274 -484 -360 -635 -85 -151 -224 -396
-308 -545 -84 -148 -191 -337 -238 -420 -46 -82 -142 -251 -212 -375 -399
-704 -729 -1289 -744 -1317 -28 -56 -63 13 370 -733 78 -135 199 -344 269
-465 151 -261 194 -323 299 -433 179 -186 394 -309 662 -378 102 -27 122 -28
314 -28 192 0 212 1 313 28 276 71 479 187 668 383 121 126 133 144 474 738
54 94 155 269 225 390 136 234 442 764 595 1030 227 395 512 888 560 970 61
104 415 717 580 1005 62 107 137 239 169 292 122 210 172 298 241 418 39 69
107 185 149 259 43 74 86 149 96 165 9 17 68 119 130 226 62 107 164 284 226
392 173 302 289 502 504 873 108 187 274 475 370 640 95 165 265 460 378 655
201 348 321 555 596 1035 76 132 187 323 246 425 117 202 389 672 565 980 61
107 136 238 167 290 349 603 409 710 403 720 -4 7 -672 10 -1984 10 -1871 0
-1979 -1 -1993 -17z"/>
</g>
</svg>
