<?xml version="1.0" standalone="no"?>
<!DOCTYPE svg PUBLIC "-//W3C//DTD SVG 20010904//EN"
 "http://www.w3.org/TR/2001/REC-SVG-20010904/DTD/svg10.dtd">
<svg version="1.0" xmlns="http://www.w3.org/2000/svg"
 width="1600.000000pt" height="600.000000pt" viewBox="0 0 1600.000000 600.000000"
 preserveAspectRatio="xMidYMid meet">

<g transform="translate(0.000000,600.000000) scale(0.100000,-0.100000)"
fill="#000000" stroke="none">
<path d="M2643 4120 c-89 -21 -147 -112 -128 -199 l7 -31 1328 0 1329 0 7 36
c13 68 -26 147 -89 182 -30 16 -115 17 -1227 19 -657 0 -1210 -2 -1227 -7z"/>
<path d="M2613 3733 c2 -5 43 -77 91 -160 l88 -153 539 0 c296 0 539 -2 539
-5 0 -3 -47 -88 -104 -188 -271 -477 -394 -695 -410 -725 l-17 -33 86 -150
c48 -82 90 -151 94 -153 4 -3 84 130 177 296 93 165 215 382 271 482 56 100
140 247 185 329 l83 147 336 0 336 0 68 118 c38 64 79 136 93 160 l24 42
-1242 0 c-682 0 -1239 -3 -1237 -7z"/>
<path d="M2880 3274 c0 -3 55 -101 122 -217 66 -117 150 -263 186 -325 35 -62
66 -111 67 -110 6 7 357 632 362 644 4 12 -55 14 -366 14 -204 0 -371 -3 -371
-6z"/>
<path d="M4205 3067 c-65 -116 -160 -284 -210 -372 -50 -88 -145 -254 -210
-370 -65 -115 -131 -231 -147 -258 -15 -26 -28 -52 -28 -58 0 -23 102 -189
131 -213 65 -55 158 -54 219 2 17 15 206 333 421 707 215 374 404 701 420 728
l29 47 -253 0 -252 -1 -120 -212z"/>
</g>
</svg>
