<svg id="svg" width="400" height="82.3529411764706" viewBox="0, 0, 400,82.3529411764706"><g id="svgg"><path id="path0" d="M7.875 13.773 C 7.388 14.299,7.269 25.000,7.750 25.000 C 7.888 25.000,8.000 25.113,8.000 25.250 C 8.000 25.469,8.963 25.500,15.667 25.500 L 23.333 25.500 23.333 46.417 C 23.333 61.180,23.386 67.333,23.512 67.333 C 23.610 67.333,23.803 67.446,23.940 67.583 C 24.292 67.934,37.572 67.962,37.783 67.612 C 37.857 67.491,38.048 67.343,38.208 67.284 C 38.484 67.183,38.500 66.033,38.500 46.339 L 38.500 25.500 46.130 25.500 C 53.567 25.500,53.766 25.492,54.046 25.165 C 54.440 24.705,54.493 13.833,54.101 13.833 C 53.973 13.833,53.826 13.721,53.773 13.583 C 53.688 13.363,51.011 13.335,30.964 13.351 L 8.250 13.369 7.875 13.773 M125.667 13.564 C 125.667 13.691,125.517 13.834,125.333 13.882 C 124.843 14.010,124.802 67.104,125.292 67.284 C 125.452 67.343,125.643 67.491,125.717 67.612 C 125.920 67.949,139.471 67.937,139.600 67.600 C 139.649 67.471,139.835 67.328,140.012 67.282 C 140.326 67.200,140.333 66.903,140.333 54.240 C 140.333 41.292,140.334 41.282,140.667 41.583 C 140.850 41.749,141.000 42.026,141.000 42.198 C 141.000 42.370,141.112 42.554,141.250 42.606 C 141.387 42.659,141.500 42.879,141.500 43.095 C 141.500 43.318,141.645 43.566,141.833 43.667 C 142.030 43.772,142.167 44.016,142.167 44.261 C 142.167 44.490,142.279 44.720,142.417 44.773 C 142.554 44.826,142.667 45.011,142.667 45.184 C 142.667 45.358,142.817 45.650,143.000 45.833 C 143.183 46.017,143.333 46.271,143.333 46.399 C 143.333 46.527,143.446 46.674,143.583 46.727 C 143.721 46.780,143.833 47.010,143.833 47.239 C 143.833 47.484,143.970 47.728,144.167 47.833 C 144.350 47.931,144.500 48.154,144.500 48.327 C 144.500 48.501,144.612 48.755,144.750 48.893 C 144.887 49.030,145.000 49.261,145.000 49.405 C 145.000 49.549,145.139 49.806,145.309 49.976 C 145.479 50.146,145.668 50.483,145.729 50.726 C 145.790 50.968,145.913 51.167,146.003 51.167 C 146.093 51.167,146.167 51.324,146.167 51.516 C 146.167 51.724,146.301 51.900,146.500 51.952 C 146.737 52.014,146.833 52.179,146.833 52.525 C 146.833 52.794,146.940 53.052,147.073 53.102 C 147.205 53.153,147.360 53.407,147.417 53.667 C 147.474 53.926,147.628 54.180,147.760 54.231 C 147.892 54.281,148.000 54.501,148.000 54.719 C 148.000 54.937,148.150 55.289,148.333 55.500 C 148.517 55.711,148.667 55.948,148.667 56.026 C 148.667 56.103,148.779 56.167,148.917 56.167 C 149.054 56.167,149.167 56.286,149.167 56.432 C 149.167 56.577,149.335 56.837,149.542 57.009 C 150.053 57.436,160.609 57.511,160.771 57.090 C 160.822 56.956,161.007 56.801,161.182 56.745 C 161.357 56.690,161.500 56.546,161.500 56.426 C 161.500 56.306,161.612 56.114,161.750 56.000 C 161.887 55.886,162.000 55.588,162.000 55.339 C 162.000 55.089,162.150 54.749,162.333 54.583 C 162.517 54.417,162.667 54.181,162.667 54.058 C 162.667 53.934,162.779 53.833,162.917 53.833 C 163.090 53.833,163.167 53.660,163.167 53.269 C 163.167 52.846,163.250 52.684,163.500 52.618 C 163.691 52.568,163.833 52.391,163.833 52.203 C 163.833 52.022,163.946 51.781,164.083 51.667 C 164.221 51.553,164.333 51.206,164.333 50.896 C 164.333 50.502,164.410 50.333,164.589 50.333 C 164.729 50.333,164.892 50.202,164.951 50.042 C 165.010 49.881,165.152 49.693,165.266 49.624 C 165.380 49.555,165.522 49.280,165.580 49.013 C 165.639 48.746,165.795 48.486,165.927 48.436 C 166.063 48.384,166.167 48.124,166.167 47.839 C 166.167 47.513,166.251 47.333,166.403 47.333 C 166.534 47.333,166.691 47.103,166.752 46.822 C 166.814 46.541,166.970 46.270,167.099 46.221 C 167.234 46.169,167.333 45.900,167.333 45.585 C 167.333 45.179,167.419 45.017,167.667 44.952 C 167.850 44.904,168.000 44.745,168.000 44.599 C 168.000 44.453,168.112 44.333,168.250 44.333 C 168.425 44.333,168.500 44.157,168.500 43.750 C 168.500 43.343,168.575 43.167,168.750 43.167 C 168.887 43.167,169.000 43.064,169.000 42.939 C 169.000 42.814,169.150 42.521,169.333 42.288 C 169.517 42.055,169.667 41.756,169.667 41.625 C 169.667 41.493,169.817 41.249,170.000 41.083 C 170.333 40.782,170.333 40.792,170.333 54.048 L 170.333 67.314 170.704 67.574 C 171.101 67.852,184.207 67.977,184.589 67.706 C 184.684 67.638,184.928 67.367,185.131 67.103 L 185.500 66.622 185.500 40.611 L 185.500 14.601 185.061 13.967 L 184.621 13.333 177.305 13.333 C 171.185 13.333,169.975 13.371,169.900 13.567 C 169.851 13.695,169.665 13.838,169.488 13.885 C 169.258 13.945,169.167 14.115,169.167 14.484 C 169.167 14.836,169.086 15.000,168.911 15.000 C 168.771 15.000,168.608 15.131,168.549 15.292 C 168.490 15.452,168.342 15.643,168.221 15.717 C 168.099 15.790,168.000 16.071,168.000 16.342 C 168.000 16.661,167.915 16.833,167.758 16.833 C 167.613 16.833,167.472 17.065,167.408 17.405 C 167.349 17.720,167.195 18.017,167.067 18.067 C 166.938 18.116,166.833 18.382,166.833 18.661 C 166.833 18.982,166.749 19.167,166.601 19.167 C 166.350 19.167,166.167 19.516,166.167 19.996 C 166.167 20.162,166.054 20.341,165.917 20.394 C 165.779 20.446,165.667 20.593,165.667 20.719 C 165.667 20.845,165.517 21.084,165.333 21.250 C 165.127 21.437,165.000 21.763,165.000 22.109 C 165.000 22.494,164.922 22.667,164.750 22.667 C 164.611 22.667,164.500 22.815,164.500 23.000 C 164.500 23.183,164.396 23.333,164.268 23.333 C 164.016 23.333,163.833 23.682,163.833 24.162 C 163.833 24.328,163.721 24.508,163.583 24.560 C 163.446 24.613,163.333 24.843,163.333 25.072 C 163.333 25.318,163.197 25.561,163.000 25.667 C 162.782 25.783,162.667 26.016,162.667 26.339 C 162.667 26.667,162.583 26.833,162.417 26.833 C 162.279 26.833,162.167 26.972,162.167 27.141 C 162.167 27.310,162.017 27.584,161.833 27.750 C 161.650 27.916,161.500 28.218,161.500 28.422 C 161.500 28.626,161.387 28.886,161.250 29.000 C 161.112 29.114,161.000 29.385,161.000 29.602 C 161.000 29.819,160.850 30.091,160.667 30.205 C 160.483 30.320,160.333 30.508,160.333 30.623 C 160.333 30.739,160.183 30.983,160.000 31.167 C 159.817 31.350,159.667 31.642,159.667 31.816 C 159.667 31.989,159.554 32.174,159.417 32.227 C 159.271 32.283,159.167 32.533,159.167 32.828 C 159.167 33.159,159.083 33.333,158.924 33.333 C 158.780 33.333,158.638 33.565,158.575 33.905 C 158.516 34.220,158.362 34.517,158.234 34.567 C 158.105 34.616,158.000 34.762,158.000 34.891 C 158.000 35.020,157.895 35.213,157.766 35.320 C 157.638 35.426,157.484 35.707,157.425 35.944 C 157.365 36.180,157.208 36.482,157.075 36.615 C 156.942 36.748,156.833 36.994,156.833 37.161 C 156.833 37.328,156.728 37.505,156.599 37.554 C 156.470 37.604,156.316 37.868,156.256 38.141 C 156.195 38.415,156.038 38.680,155.906 38.731 C 155.764 38.785,155.667 39.049,155.667 39.378 C 155.667 39.904,155.427 40.333,155.133 40.333 C 155.060 40.333,155.000 40.101,155.000 39.818 C 155.000 39.442,154.909 39.278,154.667 39.215 C 154.434 39.154,154.333 38.988,154.333 38.665 C 154.333 38.407,154.222 38.160,154.083 38.106 C 153.946 38.054,153.833 37.864,153.833 37.686 C 153.833 37.184,153.655 36.833,153.399 36.833 C 153.271 36.833,153.167 36.683,153.167 36.500 C 153.167 36.315,153.056 36.167,152.917 36.167 C 152.753 36.167,152.667 36.002,152.667 35.689 C 152.667 35.427,152.529 35.033,152.362 34.814 C 152.194 34.596,152.009 34.285,151.950 34.125 C 151.892 33.965,151.766 33.833,151.672 33.833 C 151.577 33.833,151.500 33.601,151.500 33.318 C 151.500 32.942,151.409 32.778,151.167 32.715 C 150.983 32.667,150.833 32.496,150.833 32.334 C 150.833 32.173,150.721 31.947,150.583 31.833 C 150.446 31.719,150.333 31.448,150.333 31.230 C 150.333 31.012,150.183 30.683,150.000 30.500 C 149.817 30.317,149.667 30.014,149.667 29.828 C 149.667 29.642,149.554 29.446,149.417 29.394 C 149.279 29.341,149.167 29.149,149.167 28.967 C 149.167 28.776,149.026 28.599,148.833 28.548 C 148.577 28.481,148.500 28.321,148.499 27.856 C 148.499 27.396,148.358 27.097,147.916 26.616 C 147.595 26.267,147.331 25.817,147.328 25.616 C 147.321 25.163,146.788 24.500,146.432 24.500 C 146.229 24.500,146.167 24.325,146.167 23.759 C 146.167 23.015,145.646 22.167,145.189 22.167 C 145.079 22.167,145.000 21.886,145.000 21.498 C 145.000 21.036,144.897 20.742,144.667 20.545 C 144.483 20.388,144.333 20.135,144.333 19.983 C 144.333 19.832,144.221 19.614,144.083 19.500 C 143.946 19.386,143.833 19.145,143.833 18.964 C 143.833 18.776,143.691 18.598,143.500 18.548 C 143.263 18.486,143.167 18.321,143.167 17.975 C 143.167 17.697,143.060 17.449,142.917 17.394 C 142.779 17.341,142.667 17.119,142.667 16.900 C 142.667 16.682,142.517 16.409,142.333 16.295 C 142.136 16.171,142.000 15.906,142.000 15.644 C 142.000 15.401,141.887 15.159,141.750 15.106 C 141.612 15.054,141.500 14.928,141.500 14.827 C 141.500 14.727,141.256 14.351,140.958 13.992 L 140.417 13.339 133.042 13.336 C 126.872 13.334,125.667 13.371,125.667 13.564 M204.407 13.578 C 204.161 13.764,203.552 13.824,201.873 13.828 C 199.873 13.833,199.636 13.865,199.378 14.167 C 199.200 14.374,198.886 14.500,198.546 14.500 C 198.172 14.500,198.000 14.579,198.000 14.750 C 198.000 14.935,197.806 15.000,197.251 15.000 C 196.683 15.000,196.453 15.080,196.295 15.333 C 196.180 15.517,195.915 15.667,195.705 15.667 C 195.495 15.667,195.280 15.779,195.227 15.917 C 195.174 16.054,195.020 16.167,194.883 16.167 C 194.747 16.167,194.596 16.317,194.548 16.500 C 194.500 16.683,194.385 16.833,194.291 16.833 C 194.094 16.833,193.333 17.618,193.333 17.822 C 193.333 17.899,193.183 18.000,193.000 18.048 C 192.757 18.112,192.667 18.276,192.667 18.651 C 192.667 18.998,192.585 19.167,192.417 19.167 C 192.278 19.167,192.167 19.315,192.167 19.500 C 192.167 19.683,192.062 19.833,191.934 19.833 C 191.646 19.833,191.500 20.195,191.500 20.912 C 191.500 21.249,191.403 21.502,191.250 21.560 C 191.088 21.622,191.000 21.881,191.000 22.291 C 191.000 22.735,190.900 22.999,190.667 23.167 C 190.342 23.400,190.333 23.598,190.333 30.372 C 190.333 37.130,190.343 37.345,190.667 37.622 C 190.892 37.815,191.000 38.114,191.000 38.542 C 191.000 38.953,191.088 39.211,191.250 39.273 C 191.414 39.336,191.500 39.597,191.500 40.033 C 191.500 40.558,191.570 40.716,191.833 40.785 C 192.046 40.841,192.167 41.012,192.167 41.260 C 192.167 41.473,192.246 41.696,192.344 41.756 C 192.441 41.817,192.589 42.046,192.673 42.266 C 192.757 42.486,192.921 42.668,193.038 42.670 C 193.154 42.672,193.362 42.916,193.500 43.212 C 193.654 43.544,193.894 43.770,194.125 43.803 C 194.331 43.833,194.500 43.964,194.500 44.095 C 194.500 44.226,194.604 44.333,194.731 44.333 C 194.857 44.333,195.000 44.483,195.048 44.667 C 195.108 44.893,195.276 45.000,195.573 45.000 C 195.814 45.000,196.054 45.112,196.106 45.250 C 196.159 45.387,196.326 45.500,196.478 45.500 C 196.629 45.500,196.847 45.650,196.961 45.833 C 197.123 46.092,197.350 46.167,197.976 46.167 C 198.570 46.167,198.861 46.254,199.083 46.500 C 199.266 46.702,199.597 46.833,199.923 46.833 C 200.220 46.833,200.677 46.945,200.939 47.082 C 201.348 47.295,202.914 47.331,211.792 47.332 L 222.167 47.333 222.167 51.155 C 222.167 54.831,222.154 54.982,221.833 55.083 C 221.650 55.142,221.500 55.297,221.500 55.428 C 221.500 55.559,221.397 55.667,221.270 55.667 C 221.144 55.667,220.947 55.779,220.833 55.917 C 220.550 56.258,205.405 56.298,205.292 55.958 C 205.238 55.798,203.762 55.739,198.830 55.703 C 194.120 55.668,192.372 55.602,192.191 55.453 C 191.998 55.293,191.931 55.294,191.876 55.458 C 191.837 55.573,191.624 55.667,191.403 55.667 L 191.000 55.667 191.000 61.167 L 191.000 66.667 191.500 66.667 C 191.778 66.667,192.148 66.815,192.333 67.000 C 192.645 67.311,192.889 67.333,196.050 67.333 C 198.366 67.333,199.493 67.393,199.624 67.524 C 199.894 67.794,203.359 67.982,208.333 67.997 C 211.797 68.008,212.643 68.056,212.907 68.255 C 213.366 68.603,226.187 68.623,226.533 68.277 C 226.656 68.154,227.236 68.010,227.822 67.957 C 228.544 67.891,228.936 67.775,229.036 67.597 C 229.126 67.436,229.408 67.333,229.758 67.333 C 230.111 67.333,230.462 67.205,230.667 67.000 C 230.850 66.817,231.146 66.667,231.323 66.667 C 231.501 66.667,231.696 66.587,231.756 66.490 C 231.817 66.392,232.046 66.244,232.266 66.161 C 232.486 66.077,232.667 65.894,232.667 65.754 C 232.667 65.614,232.760 65.498,232.875 65.494 C 233.199 65.486,233.833 64.893,233.833 64.598 C 233.833 64.453,233.946 64.333,234.083 64.333 C 234.221 64.333,234.333 64.230,234.333 64.103 C 234.333 63.976,234.483 63.833,234.667 63.785 C 234.881 63.729,235.000 63.558,235.000 63.306 C 235.000 63.090,235.150 62.820,235.333 62.705 C 235.517 62.591,235.667 62.393,235.667 62.266 C 235.667 62.140,235.779 61.992,235.917 61.940 C 236.090 61.873,236.167 61.604,236.167 61.065 C 236.167 60.551,236.255 60.222,236.428 60.096 C 236.571 59.991,236.734 59.571,236.788 59.163 C 236.843 58.756,236.988 58.322,237.111 58.199 C 237.451 57.858,237.435 45.323,237.093 44.692 C 236.961 44.449,236.807 43.965,236.751 43.616 C 236.694 43.268,236.540 42.941,236.407 42.890 C 236.243 42.827,236.167 42.539,236.167 41.977 C 236.167 41.427,236.090 41.127,235.933 41.067 C 235.805 41.017,235.662 40.832,235.615 40.655 C 235.569 40.478,235.412 40.333,235.266 40.333 C 235.080 40.333,235.000 40.178,235.000 39.818 C 235.000 39.442,234.909 39.278,234.667 39.215 C 234.483 39.167,234.333 39.022,234.333 38.892 C 234.333 38.762,234.221 38.613,234.083 38.560 C 233.946 38.508,233.833 38.360,233.833 38.232 C 233.833 38.104,233.683 38.000,233.500 38.000 C 233.312 38.000,233.167 37.889,233.167 37.745 C 233.167 37.604,233.045 37.443,232.897 37.386 C 232.748 37.329,232.376 37.031,232.069 36.725 C 231.653 36.309,231.366 36.167,230.940 36.167 C 230.586 36.167,230.333 36.072,230.273 35.917 C 230.220 35.779,230.049 35.667,229.893 35.667 C 229.737 35.667,229.465 35.535,229.288 35.375 C 229.029 35.141,228.586 35.072,227.025 35.027 C 225.572 34.985,225.050 34.911,224.950 34.735 C 224.838 34.537,223.441 34.500,216.158 34.500 C 207.722 34.500,207.491 34.491,207.167 34.167 C 206.983 33.983,206.683 33.833,206.500 33.833 C 206.315 33.833,206.167 33.722,206.167 33.583 C 206.167 33.446,206.065 33.333,205.941 33.333 C 205.265 33.333,205.250 27.247,205.925 26.732 C 206.058 26.630,206.167 26.461,206.167 26.357 C 206.167 26.252,206.317 26.167,206.500 26.167 C 206.683 26.167,206.983 26.017,207.167 25.833 C 207.494 25.506,207.724 25.500,219.958 25.497 L 232.417 25.494 232.792 25.099 C 233.349 24.511,233.388 14.093,232.833 13.917 C 232.650 13.858,232.500 13.703,232.500 13.572 C 232.500 13.208,204.889 13.214,204.407 13.578 M321.000 25.871 C 320.496 25.958,319.258 26.060,318.250 26.100 C 316.067 26.184,315.667 26.260,315.667 26.587 C 315.667 26.797,315.150 26.833,312.196 26.833 C 307.536 26.833,308.000 26.192,308.000 32.640 L 308.000 37.675 308.458 37.849 C 308.995 38.053,314.161 37.889,315.333 37.630 C 315.746 37.539,317.250 37.408,318.677 37.339 C 320.103 37.269,321.429 37.127,321.624 37.023 C 322.216 36.706,329.833 36.762,329.833 37.083 C 329.833 37.221,329.904 37.333,329.991 37.333 C 330.626 37.333,331.000 38.128,331.000 39.477 L 331.000 40.833 322.430 40.833 C 313.750 40.833,313.333 40.853,313.333 41.268 C 313.333 41.443,313.063 41.500,312.234 41.500 C 311.276 41.500,311.124 41.543,311.048 41.833 C 310.983 42.084,310.821 42.167,310.397 42.167 C 310.007 42.167,309.833 42.244,309.833 42.417 C 309.833 42.554,309.701 42.667,309.540 42.667 C 309.379 42.667,309.153 42.817,309.039 43.000 C 308.924 43.183,308.723 43.333,308.591 43.333 C 308.298 43.333,307.500 44.049,307.500 44.311 C 307.500 44.415,307.385 44.500,307.245 44.500 C 307.104 44.500,306.941 44.631,306.881 44.792 C 306.729 45.201,306.124 46.057,305.875 46.217 C 305.760 46.290,305.667 46.553,305.667 46.802 C 305.667 47.073,305.533 47.336,305.333 47.461 C 305.135 47.585,304.998 47.854,304.995 48.126 C 304.992 48.378,304.879 48.729,304.745 48.907 C 304.376 49.395,304.381 60.190,304.750 60.560 C 304.887 60.697,305.000 60.959,305.000 61.141 C 305.000 61.649,305.178 62.000,305.434 62.000 C 305.589 62.000,305.667 62.196,305.667 62.583 C 305.667 62.991,305.742 63.167,305.917 63.167 C 306.054 63.167,306.167 63.265,306.167 63.385 C 306.167 63.505,306.317 63.765,306.500 63.962 C 306.683 64.158,306.833 64.435,306.833 64.576 C 306.833 64.718,306.899 64.833,306.979 64.833 C 307.060 64.833,307.444 65.133,307.833 65.500 C 308.223 65.867,308.682 66.167,308.854 66.167 C 309.026 66.167,309.167 66.279,309.167 66.417 C 309.167 66.554,309.299 66.667,309.460 66.667 C 309.621 66.667,309.847 66.817,309.961 67.000 C 310.094 67.213,310.350 67.333,310.668 67.333 C 310.942 67.333,311.167 67.401,311.167 67.484 C 311.167 67.694,312.109 68.000,312.754 68.000 C 313.050 68.000,313.386 68.112,313.500 68.250 C 313.790 68.600,322.018 68.625,322.365 68.277 C 322.488 68.155,323.035 68.009,323.582 67.952 C 324.189 67.890,324.649 67.749,324.765 67.591 C 324.882 67.431,325.213 67.333,325.642 67.333 C 326.150 67.333,326.385 67.246,326.539 67.000 C 326.678 66.776,326.927 66.667,327.295 66.667 C 327.629 66.667,327.881 66.569,327.940 66.417 C 327.995 66.272,328.245 66.167,328.533 66.167 C 328.891 66.167,329.056 66.073,329.118 65.833 C 329.189 65.565,329.346 65.500,329.928 65.500 C 330.349 65.500,330.706 65.408,330.783 65.279 C 330.857 65.158,331.048 65.010,331.208 64.951 C 331.369 64.892,331.500 64.729,331.500 64.589 C 331.500 64.444,331.645 64.333,331.833 64.333 C 332.141 64.333,332.167 64.444,332.167 65.750 C 332.167 66.529,332.230 67.167,332.308 67.167 C 332.385 67.167,332.622 67.317,332.833 67.500 C 333.442 68.028,344.555 68.017,345.228 67.488 L 345.667 67.142 345.667 51.321 C 345.667 35.722,345.662 35.495,345.333 35.167 C 345.059 34.892,345.000 34.611,345.000 33.568 C 345.000 32.442,344.963 32.292,344.667 32.215 C 344.415 32.149,344.333 31.988,344.333 31.559 C 344.333 31.207,344.238 30.953,344.083 30.894 C 343.946 30.841,343.833 30.656,343.833 30.484 C 343.833 30.311,343.683 30.076,343.500 29.961 C 343.317 29.847,343.167 29.621,343.167 29.460 C 343.167 29.299,343.096 29.167,343.009 29.167 C 342.779 29.167,342.000 28.412,342.000 28.189 C 342.000 28.085,341.850 28.000,341.667 28.000 C 341.483 28.000,341.333 27.893,341.333 27.763 C 341.333 27.633,341.108 27.477,340.833 27.417 C 340.558 27.356,340.333 27.200,340.333 27.070 C 340.333 26.911,340.143 26.833,339.750 26.833 C 339.389 26.833,339.040 26.706,338.833 26.500 C 338.650 26.317,338.322 26.167,338.104 26.167 C 337.886 26.167,337.614 26.054,337.500 25.917 C 337.257 25.624,322.676 25.583,321.000 25.871 M373.167 25.917 C 373.046 26.062,372.682 26.167,372.297 26.167 C 371.776 26.167,371.617 26.237,371.548 26.500 C 371.473 26.790,371.321 26.833,370.392 26.833 C 369.637 26.833,369.297 26.901,369.235 27.063 C 369.185 27.192,368.784 27.341,368.323 27.402 C 367.761 27.477,367.500 27.589,367.500 27.756 C 367.500 27.922,367.320 28.000,366.934 28.000 C 366.602 28.000,366.332 28.097,366.279 28.234 C 366.230 28.363,365.954 28.520,365.667 28.583 C 365.379 28.646,365.107 28.796,365.061 28.916 C 364.900 29.336,364.333 29.340,364.333 28.921 C 364.333 28.712,364.221 28.447,364.083 28.333 C 363.926 28.203,363.833 27.836,363.833 27.346 C 363.833 26.112,364.137 26.167,357.246 26.167 L 351.058 26.167 350.696 26.552 L 350.333 26.938 350.333 53.302 C 350.333 79.444,350.336 79.669,350.667 80.000 C 351.153 80.487,364.771 80.526,364.954 80.042 C 365.015 79.881,365.163 79.651,365.282 79.530 C 365.453 79.357,365.500 78.069,365.500 73.571 L 365.500 67.833 373.635 67.833 C 380.529 67.833,381.819 67.796,382.093 67.589 C 382.295 67.436,382.808 67.342,383.460 67.339 C 384.293 67.334,384.561 67.266,384.789 67.000 C 384.966 66.793,385.280 66.667,385.620 66.667 C 385.995 66.667,386.167 66.588,386.167 66.417 C 386.167 66.248,386.335 66.167,386.682 66.167 C 387.058 66.167,387.222 66.076,387.285 65.833 C 387.348 65.594,387.512 65.500,387.868 65.500 C 388.224 65.500,388.389 65.406,388.452 65.167 C 388.500 64.983,388.643 64.833,388.769 64.833 C 388.896 64.833,389.000 64.721,389.000 64.583 C 389.000 64.444,389.148 64.333,389.333 64.333 C 389.517 64.333,389.667 64.225,389.667 64.093 C 389.667 63.960,389.929 63.566,390.249 63.218 C 390.570 62.869,390.832 62.490,390.833 62.375 C 390.833 62.260,390.983 62.017,391.167 61.833 C 391.350 61.650,391.500 61.284,391.500 61.020 C 391.500 60.757,391.613 60.447,391.750 60.333 C 391.909 60.201,392.000 59.833,392.000 59.321 C 392.000 58.728,392.077 58.474,392.292 58.353 C 392.783 58.078,392.827 34.863,392.337 34.420 C 392.107 34.212,392.000 33.905,392.000 33.458 C 392.000 33.097,391.892 32.602,391.761 32.359 C 391.629 32.116,391.478 31.710,391.424 31.458 C 391.371 31.206,391.225 31.000,391.101 31.000 C 390.977 31.000,390.832 30.794,390.780 30.542 C 390.728 30.290,390.456 29.835,390.176 29.531 C 389.896 29.228,389.667 28.909,389.667 28.823 C 389.667 28.737,389.588 28.667,389.492 28.667 C 389.396 28.667,389.044 28.402,388.712 28.079 C 388.379 27.756,387.933 27.448,387.720 27.394 C 387.507 27.341,387.333 27.193,387.333 27.065 C 387.333 26.899,387.104 26.833,386.519 26.833 C 385.846 26.833,385.691 26.776,385.618 26.500 C 385.552 26.245,385.391 26.167,384.932 26.167 C 384.511 26.167,384.333 26.093,384.333 25.917 C 384.333 25.700,383.613 25.667,378.854 25.667 C 374.186 25.667,373.343 25.704,373.167 25.917 M237.400 26.592 C 237.250 27.188,237.443 28.213,237.746 28.434 C 237.926 28.566,238.000 28.920,238.000 29.649 C 238.000 30.409,238.065 30.702,238.250 30.773 C 238.387 30.826,238.500 31.005,238.500 31.171 C 238.500 31.651,238.683 32.000,238.934 32.000 C 239.111 32.000,239.167 32.279,239.167 33.155 C 239.167 33.914,239.245 34.388,239.397 34.539 C 239.523 34.666,239.680 35.085,239.745 35.471 C 239.810 35.857,239.969 36.279,240.099 36.408 C 240.232 36.541,240.333 36.971,240.333 37.403 C 240.333 37.983,240.412 38.213,240.667 38.372 C 240.923 38.532,241.000 38.761,241.000 39.362 C 241.000 39.834,241.099 40.242,241.250 40.393 C 241.387 40.530,241.500 40.918,241.500 41.254 C 241.500 41.724,241.576 41.885,241.833 41.952 C 242.118 42.026,242.167 42.179,242.167 42.999 C 242.167 43.649,242.247 44.026,242.417 44.167 C 242.554 44.281,242.667 44.619,242.667 44.918 C 242.667 45.321,242.753 45.484,243.000 45.548 C 243.288 45.623,243.333 45.776,243.333 46.656 C 243.333 47.410,243.399 47.702,243.583 47.773 C 243.738 47.832,243.833 48.086,243.833 48.434 C 243.833 48.778,243.964 49.131,244.167 49.333 C 244.417 49.584,244.500 49.889,244.500 50.563 C 244.500 51.156,244.584 51.529,244.750 51.667 C 244.887 51.781,245.000 52.117,245.000 52.415 C 245.000 52.712,245.150 53.146,245.333 53.379 C 245.556 53.661,245.667 54.055,245.667 54.560 C 245.667 55.023,245.755 55.368,245.894 55.450 C 246.020 55.524,246.158 55.973,246.203 56.460 C 246.248 56.942,246.408 57.473,246.559 57.640 C 246.710 57.807,246.833 58.172,246.833 58.451 C 246.833 58.731,246.936 59.045,247.062 59.149 C 247.188 59.253,247.342 59.788,247.404 60.336 C 247.484 61.044,247.587 61.333,247.758 61.333 C 247.928 61.333,248.000 61.527,248.000 61.988 C 248.000 62.348,248.112 62.755,248.250 62.893 C 248.387 63.030,248.501 63.392,248.502 63.696 C 248.506 64.499,248.672 65.000,248.936 65.000 C 249.093 65.000,249.167 65.208,249.167 65.655 C 249.167 66.015,249.279 66.422,249.417 66.560 C 249.554 66.697,249.667 66.900,249.667 67.010 C 249.667 67.803,249.947 67.833,257.322 67.833 C 264.654 67.833,265.000 67.798,265.000 67.059 C 265.000 66.918,265.150 66.612,265.333 66.379 C 265.520 66.142,265.667 65.703,265.667 65.382 C 265.667 65.067,265.779 64.697,265.917 64.560 C 266.054 64.422,266.167 64.015,266.167 63.655 C 266.167 63.295,266.230 63.000,266.307 63.000 C 266.539 63.000,266.833 62.190,266.839 61.534 C 266.842 61.194,266.954 60.771,267.089 60.593 C 267.223 60.415,267.333 60.048,267.333 59.778 C 267.333 59.508,267.457 59.196,267.609 59.085 C 267.789 58.954,267.912 58.556,267.963 57.945 C 268.006 57.429,268.144 56.921,268.270 56.816 C 268.397 56.712,268.500 56.400,268.500 56.123 C 268.500 55.846,268.616 55.535,268.758 55.431 C 268.917 55.315,269.055 54.858,269.116 54.246 C 269.173 53.680,269.313 53.192,269.441 53.117 C 269.565 53.043,269.667 52.725,269.667 52.408 C 269.667 52.092,269.730 51.833,269.807 51.833 C 270.044 51.833,270.333 51.017,270.333 50.346 C 270.333 49.982,270.441 49.618,270.583 49.500 C 270.736 49.373,270.833 49.008,270.833 48.563 C 270.833 48.056,270.935 47.732,271.167 47.500 C 271.392 47.275,271.500 46.944,271.500 46.482 C 271.500 45.926,271.550 45.817,271.764 45.899 C 271.909 45.954,272.059 46.000,272.097 46.000 C 272.135 46.000,272.167 46.377,272.167 46.839 C 272.167 47.430,272.240 47.705,272.417 47.773 C 272.590 47.840,272.667 48.111,272.667 48.662 C 272.667 49.203,272.773 49.590,273.000 49.879 C 273.183 50.112,273.333 50.537,273.333 50.823 C 273.333 51.132,273.435 51.383,273.583 51.440 C 273.763 51.509,273.833 51.789,273.833 52.436 C 273.833 53.130,273.910 53.402,274.167 53.622 C 274.369 53.795,274.500 54.114,274.500 54.433 C 274.500 54.723,274.612 55.053,274.750 55.167 C 274.910 55.299,275.000 55.668,275.000 56.186 C 275.000 56.817,275.074 57.043,275.333 57.205 C 275.567 57.352,275.667 57.594,275.667 58.020 C 275.667 58.355,275.778 58.719,275.917 58.833 C 276.059 58.951,276.167 59.314,276.167 59.673 C 276.167 60.468,276.303 60.833,276.601 60.833 C 276.771 60.833,276.833 61.075,276.833 61.730 C 276.833 62.323,276.918 62.696,277.083 62.833 C 277.221 62.947,277.333 63.284,277.333 63.581 C 277.333 63.879,277.483 64.312,277.667 64.545 C 277.902 64.845,278.000 65.222,278.000 65.832 C 278.000 66.600,278.065 66.757,278.586 67.264 L 279.173 67.833 286.211 67.831 C 290.083 67.829,293.328 67.773,293.422 67.706 C 294.052 67.259,294.333 66.591,294.333 65.545 C 294.333 64.609,294.377 64.457,294.667 64.382 C 294.907 64.319,295.000 64.154,295.000 63.791 C 295.000 63.513,295.116 63.202,295.258 63.098 C 295.416 62.983,295.556 62.522,295.619 61.915 C 295.675 61.369,295.822 60.821,295.944 60.699 C 296.066 60.576,296.167 60.219,296.167 59.905 C 296.167 59.590,296.238 59.333,296.325 59.333 C 296.524 59.333,296.831 58.258,296.832 57.559 C 296.833 57.248,296.935 56.997,297.083 56.940 C 297.255 56.874,297.333 56.606,297.333 56.089 C 297.333 55.673,297.401 55.333,297.484 55.333 C 297.668 55.333,298.000 54.420,298.000 53.912 C 298.000 53.708,298.112 53.447,298.250 53.333 C 298.411 53.199,298.500 52.830,298.500 52.290 C 298.500 51.733,298.585 51.391,298.754 51.268 C 298.893 51.166,299.055 50.782,299.112 50.416 C 299.170 50.050,299.318 49.690,299.442 49.617 C 299.585 49.532,299.667 49.164,299.667 48.601 C 299.667 47.930,299.747 47.646,300.000 47.417 C 300.203 47.233,300.333 46.903,300.333 46.575 C 300.333 46.249,300.432 45.998,300.583 45.940 C 300.766 45.870,300.833 45.583,300.833 44.879 C 300.833 44.094,300.896 43.875,301.167 43.705 C 301.418 43.549,301.500 43.317,301.500 42.766 C 301.500 42.271,301.580 42.005,301.750 41.940 C 301.921 41.874,302.000 41.606,302.000 41.089 C 302.000 40.556,302.098 40.235,302.333 40.000 C 302.603 39.730,302.667 39.444,302.667 38.500 C 302.667 37.574,302.718 37.333,302.917 37.333 C 303.068 37.333,303.167 37.179,303.167 36.942 C 303.167 36.728,303.317 36.416,303.500 36.250 C 303.767 36.009,303.833 35.737,303.833 34.891 C 303.833 34.062,303.887 33.833,304.083 33.833 C 304.264 33.833,304.333 33.648,304.333 33.167 C 304.333 32.708,304.406 32.500,304.566 32.500 C 304.875 32.500,305.000 32.130,305.000 31.213 C 305.000 30.725,305.091 30.387,305.254 30.268 C 305.393 30.166,305.554 29.782,305.610 29.416 C 305.666 29.050,305.818 28.627,305.948 28.477 C 306.109 28.291,306.168 27.893,306.134 27.227 L 306.083 26.250 298.369 26.250 C 289.997 26.250,290.342 26.211,290.336 27.154 C 290.334 27.375,290.207 27.697,290.052 27.868 C 289.878 28.060,289.743 28.559,289.699 29.169 C 289.658 29.727,289.527 30.242,289.397 30.350 C 289.270 30.455,289.167 30.822,289.167 31.167 C 289.167 31.511,289.059 31.882,288.927 31.991 C 288.795 32.101,288.635 32.616,288.571 33.137 C 288.507 33.657,288.353 34.231,288.227 34.412 C 288.102 34.593,288.000 35.027,288.000 35.376 C 288.000 35.726,287.893 36.178,287.763 36.381 C 287.633 36.584,287.474 37.104,287.412 37.536 C 287.349 37.969,287.193 38.409,287.065 38.515 C 286.911 38.643,286.833 39.068,286.833 39.786 C 286.833 40.612,286.755 40.963,286.500 41.288 C 286.317 41.521,286.167 41.918,286.167 42.171 C 286.167 42.426,286.055 42.674,285.917 42.727 C 285.727 42.800,285.667 43.107,285.667 43.995 C 285.667 44.885,285.611 45.167,285.434 45.167 C 285.146 45.167,285.000 45.529,285.000 46.246 C 285.000 46.572,284.902 46.835,284.761 46.890 C 284.629 46.940,284.492 47.267,284.455 47.616 L 284.389 48.250 284.361 47.542 C 284.341 47.036,284.262 46.833,284.083 46.833 C 283.885 46.833,283.833 46.595,283.833 45.692 C 283.833 44.763,283.771 44.496,283.500 44.250 C 283.277 44.048,283.167 43.737,283.167 43.308 C 283.167 42.849,283.096 42.667,282.917 42.667 C 282.721 42.667,282.667 42.438,282.667 41.609 C 282.667 40.763,282.600 40.491,282.333 40.250 C 282.089 40.029,282.000 39.737,282.000 39.153 C 282.000 38.668,281.902 38.260,281.750 38.107 C 281.599 37.956,281.500 37.549,281.500 37.080 C 281.500 36.442,281.440 36.286,281.167 36.215 C 280.879 36.140,280.833 35.988,280.833 35.096 C 280.833 34.446,280.743 33.944,280.589 33.740 C 280.454 33.562,280.342 33.166,280.339 32.859 C 280.335 32.445,280.248 32.280,280.000 32.215 C 279.702 32.137,279.667 31.988,279.667 30.809 C 279.667 29.840,279.605 29.466,279.436 29.401 C 279.310 29.353,279.159 29.017,279.101 28.656 C 279.035 28.246,278.906 28.000,278.757 28.000 C 278.586 28.000,278.503 27.751,278.467 27.125 L 278.417 26.250 271.848 26.250 L 265.280 26.250 264.897 26.917 C 264.618 27.403,264.512 27.855,264.507 28.585 C 264.501 29.401,264.438 29.625,264.167 29.795 C 263.951 29.929,263.833 30.183,263.833 30.513 C 263.833 30.794,263.721 31.136,263.583 31.274 C 263.421 31.436,263.333 31.848,263.333 32.444 C 263.333 33.112,263.242 33.480,263.000 33.788 C 262.817 34.021,262.667 34.455,262.667 34.752 C 262.667 35.049,262.554 35.386,262.417 35.500 C 262.240 35.647,262.167 36.036,262.167 36.834 C 262.167 37.821,262.125 37.972,261.833 38.048 C 261.559 38.120,261.499 38.278,261.495 38.943 C 261.492 39.387,261.379 39.896,261.245 40.074 C 261.103 40.262,261.000 40.760,261.000 41.262 C 261.000 41.988,260.946 42.142,260.667 42.215 C 260.378 42.290,260.333 42.442,260.333 43.341 C 260.333 44.092,260.261 44.433,260.072 44.571 C 259.929 44.676,259.768 45.097,259.714 45.506 C 259.661 45.915,259.516 46.310,259.392 46.383 C 259.268 46.457,259.161 46.794,259.154 47.133 C 259.146 47.472,259.103 47.656,259.056 47.542 C 259.010 47.427,258.866 47.333,258.736 47.333 C 258.557 47.333,258.500 47.073,258.500 46.245 C 258.500 45.431,258.437 45.132,258.250 45.060 C 258.112 45.008,257.999 44.766,257.998 44.524 C 257.994 43.827,257.814 43.333,257.564 43.333 C 257.389 43.333,257.333 43.048,257.333 42.161 C 257.333 41.273,257.273 40.966,257.083 40.894 C 256.946 40.841,256.832 40.599,256.831 40.357 C 256.827 39.660,256.648 39.167,256.397 39.167 C 256.224 39.167,256.167 38.894,256.167 38.078 C 256.167 37.264,256.104 36.965,255.917 36.894 C 255.768 36.837,255.666 36.585,255.666 36.274 C 255.664 35.575,255.357 34.500,255.159 34.500 C 255.071 34.500,255.000 34.118,255.000 33.651 C 255.000 32.942,254.945 32.788,254.667 32.715 C 254.372 32.638,254.333 32.488,254.333 31.418 C 254.333 30.545,254.264 30.150,254.083 30.000 C 253.946 29.886,253.833 29.539,253.833 29.230 C 253.833 28.889,253.702 28.535,253.500 28.333 C 253.266 28.100,253.167 27.778,253.167 27.256 C 253.167 26.135,253.400 26.167,245.014 26.167 L 237.506 26.167 237.400 26.592 M376.833 38.250 C 376.833 38.389,376.981 38.500,377.167 38.500 C 377.382 38.500,377.500 38.611,377.500 38.813 C 377.500 38.985,377.613 39.219,377.750 39.333 C 378.112 39.633,378.128 54.019,377.767 54.319 C 377.640 54.425,377.486 54.772,377.427 55.089 L 377.318 55.667 371.409 55.667 L 365.500 55.667 365.500 47.435 L 365.500 39.204 366.092 39.093 C 366.418 39.032,366.726 38.873,366.777 38.741 C 366.848 38.555,367.221 38.500,368.414 38.500 C 369.584 38.500,370.010 38.439,370.167 38.250 C 370.338 38.044,370.936 38.000,373.604 38.000 C 376.363 38.000,376.833 38.036,376.833 38.250 M331.000 53.500 C 331.000 54.889,330.975 55.000,330.667 55.000 C 330.483 55.000,330.183 55.150,330.000 55.333 C 329.720 55.613,329.444 55.667,328.282 55.667 C 327.322 55.667,326.798 55.742,326.574 55.911 C 326.315 56.107,325.597 56.156,323.000 56.158 L 319.750 56.160 319.372 55.330 C 319.164 54.873,318.883 54.500,318.747 54.500 C 318.611 54.500,318.500 54.350,318.500 54.167 C 318.500 53.983,318.607 53.833,318.739 53.833 C 318.870 53.833,319.027 53.665,319.088 53.458 C 319.149 53.252,319.436 52.847,319.725 52.559 L 320.250 52.035 325.625 52.017 L 331.000 52.000 331.000 53.500 " stroke="none" fill="#fcfcfc" fill-rule="evenodd"></path><path id="path1" d="M59.375 13.943 C 59.099 14.055,59.102 15.443,59.379 15.617 C 59.495 15.690,59.681 15.956,59.792 16.208 C 59.902 16.460,60.069 16.667,60.163 16.667 C 60.257 16.667,60.333 16.811,60.333 16.986 C 60.333 17.483,60.513 17.833,60.768 17.833 C 60.896 17.833,61.000 17.974,61.000 18.146 C 61.000 18.318,61.112 18.553,61.250 18.667 C 61.387 18.781,61.500 19.052,61.500 19.270 C 61.500 19.556,61.593 19.667,61.833 19.667 C 62.093 19.667,62.167 19.778,62.167 20.172 C 62.167 20.467,62.271 20.717,62.417 20.773 C 62.554 20.826,62.667 20.962,62.667 21.075 C 62.667 21.189,62.817 21.417,63.000 21.583 C 63.183 21.749,63.333 22.052,63.333 22.255 C 63.333 22.459,63.446 22.719,63.583 22.833 C 63.721 22.947,63.833 23.143,63.833 23.269 C 63.833 23.394,63.983 23.591,64.167 23.705 C 64.371 23.833,64.500 24.094,64.500 24.379 C 64.500 24.638,64.610 24.886,64.750 24.940 C 64.887 24.992,65.000 25.140,65.000 25.268 C 65.000 25.396,65.150 25.500,65.333 25.500 C 65.601 25.500,65.667 25.611,65.667 26.063 C 65.667 26.373,65.779 26.719,65.917 26.833 C 66.054 26.947,66.167 27.189,66.167 27.369 C 66.167 27.558,66.309 27.735,66.500 27.785 C 66.750 27.851,66.833 28.012,66.833 28.436 C 66.833 28.812,66.912 29.000,67.070 29.000 C 67.200 29.000,67.357 29.230,67.419 29.511 C 67.481 29.792,67.637 30.063,67.766 30.112 C 67.895 30.162,68.000 30.344,68.000 30.518 C 68.000 30.691,68.104 30.833,68.231 30.833 C 68.364 30.833,68.510 31.083,68.572 31.417 C 68.638 31.766,68.779 32.000,68.924 32.000 C 69.070 32.000,69.167 32.162,69.167 32.407 C 69.167 32.631,69.243 32.861,69.336 32.918 C 69.429 32.976,69.619 33.261,69.759 33.553 C 70.282 34.649,70.525 35.000,70.759 35.000 C 70.916 35.000,71.000 35.176,71.000 35.505 C 71.000 35.801,71.104 36.050,71.250 36.106 C 71.387 36.159,71.500 36.345,71.500 36.519 C 71.500 36.694,71.650 36.965,71.833 37.122 C 72.017 37.279,72.167 37.533,72.167 37.686 C 72.167 37.839,72.279 38.008,72.417 38.060 C 72.554 38.113,72.667 38.334,72.667 38.552 C 72.667 38.770,72.817 39.084,73.000 39.250 C 73.183 39.416,73.333 39.655,73.333 39.781 C 73.333 39.907,73.438 40.051,73.567 40.100 C 73.695 40.149,73.847 40.440,73.905 40.745 C 73.962 41.051,74.120 41.344,74.255 41.395 C 74.390 41.447,74.500 41.604,74.500 41.745 C 74.500 41.885,74.612 42.000,74.750 42.000 C 74.914 42.000,75.000 42.164,75.000 42.474 C 75.000 42.735,75.143 43.078,75.318 43.236 C 75.493 43.395,75.682 43.707,75.738 43.929 C 75.794 44.151,75.913 44.333,76.003 44.333 C 76.093 44.333,76.167 44.483,76.167 44.667 C 76.167 44.850,76.317 45.150,76.500 45.333 C 76.683 45.517,76.833 45.779,76.833 45.917 C 76.833 46.054,76.937 46.167,77.065 46.167 C 77.197 46.167,77.343 46.416,77.406 46.750 C 77.471 47.099,77.612 47.333,77.758 47.333 C 77.915 47.333,78.000 47.506,78.000 47.825 C 78.000 48.095,78.095 48.377,78.212 48.450 C 78.328 48.523,78.516 48.771,78.629 49.000 C 79.169 50.098,79.975 51.408,80.145 51.465 C 80.248 51.499,80.333 51.708,80.333 51.929 C 80.333 52.150,80.483 52.424,80.667 52.539 C 80.850 52.653,81.000 52.832,81.000 52.936 C 81.000 53.041,81.112 53.219,81.250 53.333 C 81.387 53.447,81.500 53.703,81.500 53.900 C 81.500 54.098,81.650 54.368,81.833 54.500 C 82.017 54.632,82.167 54.911,82.167 55.120 C 82.167 55.347,82.268 55.500,82.417 55.500 C 82.554 55.500,82.667 55.644,82.667 55.820 C 82.667 56.316,82.846 56.667,83.101 56.667 C 83.236 56.667,83.333 56.837,83.333 57.071 C 83.333 57.294,83.446 57.589,83.583 57.726 C 83.721 57.864,83.833 58.045,83.833 58.129 C 83.833 58.213,83.983 58.417,84.167 58.583 C 84.350 58.749,84.500 59.061,84.500 59.276 C 84.500 59.512,84.599 59.667,84.750 59.667 C 84.889 59.667,85.000 59.815,85.000 60.000 C 85.000 60.183,85.150 60.483,85.333 60.667 C 85.517 60.850,85.667 61.138,85.667 61.308 C 85.667 61.477,85.817 61.751,86.000 61.917 C 86.183 62.083,86.333 62.319,86.333 62.442 C 86.333 62.566,86.446 62.667,86.583 62.667 C 86.751 62.667,86.833 62.834,86.833 63.172 C 86.833 63.458,86.937 63.717,87.073 63.769 C 87.205 63.820,87.361 64.080,87.420 64.347 C 87.478 64.615,87.633 64.833,87.763 64.833 C 87.893 64.833,88.000 64.983,88.000 65.167 C 88.000 65.352,88.111 65.500,88.250 65.500 C 88.411 65.500,88.501 65.664,88.504 65.958 C 88.506 66.210,88.654 66.604,88.833 66.833 C 89.013 67.063,89.161 67.348,89.163 67.467 C 89.181 68.494,91.490 68.073,91.497 67.042 C 91.499 66.821,91.603 66.667,91.750 66.667 C 91.888 66.667,92.000 66.528,92.000 66.359 C 92.000 66.190,92.150 65.916,92.333 65.750 C 92.517 65.584,92.667 65.345,92.667 65.219 C 92.667 65.093,92.779 64.946,92.917 64.894 C 93.058 64.839,93.167 64.591,93.167 64.321 C 93.167 64.016,93.286 63.781,93.500 63.667 C 93.683 63.569,93.833 63.388,93.833 63.265 C 93.833 63.141,93.946 62.947,94.083 62.833 C 94.221 62.719,94.333 62.378,94.333 62.075 C 94.333 61.772,94.221 61.411,94.083 61.274 C 93.946 61.136,93.833 60.944,93.833 60.847 C 93.833 60.749,93.683 60.576,93.500 60.461 C 93.300 60.336,93.167 60.073,93.167 59.802 C 93.167 59.553,93.071 59.290,92.955 59.217 C 92.838 59.143,92.652 58.877,92.542 58.625 C 92.431 58.373,92.264 58.167,92.170 58.167 C 92.077 58.167,92.000 57.979,92.000 57.750 C 92.000 57.491,91.906 57.333,91.750 57.333 C 91.612 57.333,91.500 57.189,91.500 57.014 C 91.500 56.517,91.320 56.167,91.066 56.167 C 90.938 56.167,90.833 56.063,90.833 55.937 C 90.833 55.811,90.721 55.614,90.583 55.500 C 90.446 55.386,90.333 55.114,90.333 54.896 C 90.333 54.678,90.183 54.350,90.000 54.167 C 89.817 53.983,89.667 53.721,89.667 53.583 C 89.667 53.446,89.563 53.333,89.435 53.333 C 89.303 53.333,89.157 53.084,89.094 52.750 C 89.029 52.401,88.888 52.167,88.742 52.167 C 88.609 52.167,88.500 52.017,88.500 51.833 C 88.500 51.648,88.389 51.500,88.250 51.500 C 88.086 51.500,88.000 51.336,88.000 51.022 C 88.000 50.760,87.850 50.354,87.667 50.121 C 87.483 49.888,87.333 49.613,87.333 49.510 C 87.333 49.407,87.228 49.283,87.100 49.233 C 86.971 49.184,86.818 48.886,86.759 48.572 C 86.695 48.232,86.553 48.000,86.409 48.000 C 86.276 48.000,86.167 47.884,86.167 47.741 C 86.167 47.352,85.446 46.169,85.208 46.168 C 85.087 46.167,85.000 45.952,85.000 45.651 C 85.000 45.276,84.909 45.112,84.667 45.048 C 84.431 44.987,84.333 44.821,84.333 44.481 C 84.333 44.182,84.246 44.000,84.102 44.000 C 83.971 44.000,83.824 43.755,83.764 43.433 C 83.705 43.121,83.547 42.823,83.412 42.771 C 83.277 42.720,83.167 42.562,83.167 42.422 C 83.167 42.282,83.054 42.167,82.917 42.167 C 82.751 42.167,82.667 42.001,82.667 41.673 C 82.667 41.349,82.552 41.117,82.333 41.000 C 82.150 40.902,82.000 40.683,82.000 40.515 C 82.000 40.346,81.887 40.114,81.750 40.000 C 81.612 39.886,81.500 39.652,81.500 39.480 C 81.500 39.307,81.350 39.017,81.167 38.833 C 80.983 38.650,80.833 38.397,80.833 38.270 C 80.833 38.144,80.728 37.954,80.600 37.847 C 80.471 37.740,80.320 37.469,80.263 37.243 C 80.207 37.018,80.049 36.833,79.913 36.833 C 79.751 36.833,79.667 36.665,79.667 36.342 C 79.667 36.071,79.567 35.790,79.446 35.717 C 79.324 35.643,79.177 35.452,79.118 35.292 C 79.059 35.131,78.896 35.000,78.755 35.000 C 78.577 35.000,78.500 34.832,78.500 34.442 C 78.500 34.097,78.373 33.770,78.167 33.583 C 77.983 33.417,77.833 33.189,77.833 33.075 C 77.833 32.962,77.721 32.826,77.583 32.773 C 77.446 32.720,77.333 32.524,77.333 32.337 C 77.333 32.150,77.071 31.623,76.750 31.167 C 76.429 30.710,76.167 30.221,76.167 30.080 C 76.167 29.938,76.059 29.781,75.927 29.731 C 75.795 29.680,75.639 29.420,75.580 29.153 C 75.522 28.885,75.367 28.667,75.237 28.667 C 75.107 28.667,75.000 28.517,75.000 28.333 C 75.000 28.150,74.850 27.850,74.667 27.667 C 74.483 27.483,74.333 27.188,74.333 27.010 C 74.333 26.832,74.254 26.637,74.156 26.577 C 74.059 26.517,73.911 26.287,73.827 26.067 C 73.743 25.847,73.561 25.667,73.421 25.667 C 73.241 25.667,73.167 25.495,73.167 25.083 C 73.167 24.676,73.091 24.500,72.917 24.500 C 72.779 24.500,72.667 24.380,72.667 24.234 C 72.667 24.088,72.517 23.930,72.333 23.882 C 72.096 23.819,72.000 23.654,72.000 23.305 C 72.000 22.735,71.346 21.503,71.042 21.501 C 70.927 21.501,70.833 21.350,70.833 21.167 C 70.833 20.836,70.944 20.833,82.917 20.833 C 94.626 20.833,95.000 20.843,95.000 21.146 C 95.000 21.318,94.888 21.553,94.750 21.667 C 94.612 21.781,94.500 22.034,94.500 22.230 C 94.500 22.426,94.350 22.680,94.167 22.795 C 93.978 22.912,93.833 23.183,93.833 23.418 C 93.833 23.676,93.739 23.833,93.583 23.833 C 93.446 23.833,93.333 23.953,93.333 24.099 C 93.333 24.245,93.183 24.555,93.000 24.788 C 92.817 25.021,92.667 25.314,92.667 25.439 C 92.667 25.564,92.554 25.667,92.417 25.667 C 92.250 25.667,92.167 25.833,92.167 26.167 C 92.167 26.442,92.025 26.808,91.853 26.981 C 91.500 27.333,91.553 28.134,91.939 28.282 C 92.070 28.332,92.167 28.610,92.167 28.934 C 92.167 29.246,92.244 29.500,92.337 29.500 C 92.431 29.500,92.580 29.688,92.667 29.917 C 92.754 30.146,92.939 30.333,93.079 30.333 C 93.251 30.333,93.333 30.497,93.333 30.839 C 93.333 31.134,93.437 31.384,93.583 31.440 C 93.721 31.492,93.833 31.678,93.833 31.853 C 93.833 32.027,93.983 32.298,94.167 32.455 C 94.350 32.612,94.500 32.837,94.500 32.954 C 94.500 33.071,94.604 33.167,94.732 33.167 C 94.860 33.167,95.008 33.279,95.060 33.417 C 95.185 33.741,95.936 33.741,96.060 33.417 C 96.113 33.279,96.271 33.167,96.411 33.167 C 96.552 33.167,96.667 33.064,96.667 32.939 C 96.667 32.814,96.817 32.521,97.000 32.288 C 97.183 32.055,97.333 31.742,97.333 31.593 C 97.333 31.445,97.446 31.280,97.583 31.227 C 97.721 31.174,97.833 31.026,97.833 30.897 C 97.833 30.769,97.983 30.535,98.167 30.378 C 98.350 30.221,98.500 29.901,98.500 29.667 C 98.500 29.432,98.631 29.120,98.792 28.973 C 99.387 28.425,99.667 27.917,99.667 27.383 C 99.667 26.991,99.743 26.833,99.932 26.833 C 100.078 26.833,100.236 26.689,100.282 26.512 C 100.328 26.335,100.471 26.149,100.600 26.100 C 100.728 26.051,100.833 25.792,100.833 25.525 C 100.833 25.179,100.930 25.014,101.167 24.952 C 101.358 24.902,101.500 24.724,101.500 24.536 C 101.500 24.355,101.612 24.114,101.750 24.000 C 101.888 23.886,102.000 23.689,102.000 23.563 C 102.000 23.437,102.150 23.183,102.333 23.000 C 102.517 22.817,102.667 22.543,102.667 22.392 C 102.667 22.241,102.929 21.797,103.250 21.406 C 103.636 20.934,103.833 20.521,103.833 20.180 C 103.833 19.835,103.915 19.667,104.083 19.667 C 104.221 19.667,104.333 19.525,104.333 19.353 C 104.333 19.179,104.482 19.000,104.667 18.952 C 104.909 18.888,105.000 18.724,105.000 18.349 C 105.000 18.002,105.082 17.833,105.250 17.833 C 105.388 17.833,105.500 17.751,105.500 17.651 C 105.500 17.551,105.650 17.279,105.833 17.045 C 106.017 16.812,106.167 16.461,106.167 16.265 C 106.167 16.068,106.321 15.775,106.509 15.614 C 106.774 15.387,106.840 15.162,106.801 14.619 L 106.750 13.917 83.167 13.888 C 70.196 13.872,59.490 13.897,59.375 13.943 M111.708 13.944 C 111.594 13.990,111.500 14.201,111.500 14.413 C 111.500 14.624,111.388 14.841,111.250 14.894 C 111.112 14.946,111.000 15.161,111.000 15.371 C 111.000 15.581,110.850 15.847,110.667 15.961 C 110.483 16.076,110.333 16.311,110.333 16.484 C 110.333 16.656,110.228 16.838,110.099 16.888 C 109.970 16.937,109.816 17.201,109.756 17.475 C 109.695 17.748,109.538 18.014,109.406 18.064 C 109.271 18.116,109.167 18.376,109.167 18.661 C 109.167 18.989,109.083 19.167,108.928 19.167 C 108.797 19.167,108.637 19.332,108.573 19.534 C 108.508 19.736,108.353 20.004,108.228 20.129 C 108.103 20.255,108.000 20.470,108.000 20.609 C 108.000 20.747,107.737 21.181,107.417 21.572 C 107.024 22.051,106.833 22.456,106.833 22.809 C 106.833 23.222,106.763 23.333,106.500 23.333 C 106.284 23.333,106.167 23.444,106.167 23.649 C 106.167 23.822,106.054 24.008,105.917 24.060 C 105.779 24.113,105.667 24.346,105.667 24.578 C 105.667 24.810,105.535 25.150,105.375 25.333 C 105.215 25.517,104.952 25.817,104.792 26.000 C 104.631 26.183,104.500 26.558,104.500 26.833 C 104.500 27.170,104.417 27.333,104.246 27.333 C 104.106 27.333,103.923 27.514,103.839 27.734 C 103.756 27.954,103.608 28.183,103.510 28.244 C 103.413 28.304,103.333 28.536,103.333 28.760 C 103.333 28.996,103.236 29.167,103.101 29.167 C 102.846 29.167,102.667 29.517,102.667 30.014 C 102.667 30.189,102.554 30.333,102.417 30.333 C 102.279 30.333,102.167 30.446,102.167 30.583 C 102.167 30.721,102.017 30.983,101.833 31.167 C 101.650 31.350,101.500 31.642,101.500 31.816 C 101.500 31.989,101.388 32.174,101.250 32.227 C 101.104 32.283,101.000 32.533,101.000 32.828 C 101.000 33.222,100.927 33.333,100.667 33.333 C 100.397 33.333,100.333 33.444,100.333 33.917 C 100.333 34.312,100.256 34.500,100.095 34.500 C 99.963 34.500,99.808 34.650,99.750 34.833 C 99.692 35.017,99.580 35.167,99.502 35.167 C 99.424 35.167,99.309 35.397,99.248 35.678 C 99.186 35.959,99.032 36.229,98.905 36.277 C 98.779 36.326,98.629 36.616,98.571 36.921 C 98.514 37.227,98.362 37.517,98.234 37.567 C 98.105 37.616,98.000 37.828,98.000 38.038 C 98.000 38.248,97.850 38.513,97.667 38.628 C 97.483 38.742,97.333 39.015,97.333 39.234 C 97.333 39.452,97.221 39.674,97.083 39.727 C 96.946 39.780,96.833 39.930,96.833 40.060 C 96.833 40.191,96.728 40.338,96.599 40.388 C 96.470 40.437,96.316 40.701,96.256 40.975 C 96.195 41.248,96.038 41.514,95.906 41.564 C 95.775 41.615,95.662 41.790,95.656 41.953 C 95.648 42.187,95.613 42.170,95.495 41.875 C 95.412 41.669,95.267 41.500,95.172 41.500 C 95.077 41.500,95.000 41.367,95.000 41.203 C 95.000 41.040,94.850 40.799,94.667 40.667 C 94.483 40.535,94.333 40.263,94.333 40.064 C 94.333 39.865,94.221 39.659,94.083 39.606 C 93.946 39.554,93.833 39.351,93.833 39.156 C 93.833 38.942,93.701 38.768,93.500 38.715 C 93.250 38.649,93.167 38.488,93.167 38.064 C 93.167 37.674,93.090 37.500,92.917 37.500 C 92.778 37.500,92.667 37.352,92.667 37.167 C 92.667 36.983,92.517 36.683,92.333 36.500 C 92.150 36.317,92.000 36.054,92.000 35.917 C 92.000 35.779,91.888 35.667,91.750 35.667 C 91.612 35.667,91.500 35.523,91.500 35.347 C 91.500 34.850,91.320 34.500,91.066 34.500 C 90.931 34.500,90.833 34.330,90.833 34.095 C 90.833 33.873,90.721 33.578,90.583 33.440 C 90.446 33.303,90.333 33.073,90.333 32.929 C 90.333 32.785,90.196 32.530,90.029 32.362 C 89.862 32.195,89.676 31.932,89.617 31.779 C 89.559 31.626,89.441 31.500,89.357 31.500 C 89.273 31.500,89.155 31.238,89.094 30.917 C 89.029 30.567,88.888 30.333,88.742 30.333 C 88.609 30.333,88.500 30.183,88.500 30.000 C 88.500 29.815,88.389 29.667,88.250 29.667 C 88.086 29.667,88.000 29.502,88.000 29.189 C 88.000 28.927,87.850 28.521,87.667 28.288 C 87.483 28.055,87.333 27.790,87.333 27.700 C 87.333 27.610,87.228 27.495,87.099 27.446 C 86.970 27.396,86.813 27.121,86.750 26.833 C 86.687 26.546,86.530 26.270,86.401 26.221 C 86.272 26.171,86.167 25.988,86.167 25.814 C 86.167 25.639,86.017 25.368,85.833 25.211 C 85.650 25.054,85.500 24.829,85.500 24.710 C 85.500 24.538,84.742 24.503,81.792 24.538 L 78.083 24.583 78.033 25.544 C 77.995 26.274,78.043 26.527,78.231 26.599 C 78.368 26.652,78.529 26.918,78.589 27.192 C 78.649 27.465,78.804 27.730,78.932 27.779 C 79.061 27.829,79.167 28.001,79.167 28.162 C 79.167 28.323,79.317 28.646,79.500 28.879 C 79.683 29.112,79.833 29.384,79.833 29.485 C 79.833 29.585,79.946 29.667,80.083 29.667 C 80.252 29.667,80.333 29.835,80.333 30.182 C 80.333 30.558,80.424 30.722,80.667 30.785 C 80.851 30.833,81.000 31.012,81.000 31.186 C 81.000 31.359,81.112 31.500,81.250 31.500 C 81.424 31.500,81.500 31.676,81.500 32.082 C 81.500 32.483,81.603 32.728,81.833 32.872 C 82.017 32.987,82.167 33.212,82.167 33.373 C 82.167 33.535,82.279 33.667,82.417 33.667 C 82.572 33.667,82.667 33.824,82.667 34.083 C 82.667 34.312,82.806 34.639,82.976 34.809 C 83.146 34.979,83.335 35.317,83.396 35.559 C 83.457 35.802,83.580 36.000,83.670 36.000 C 83.760 36.000,83.833 36.157,83.833 36.349 C 83.833 36.558,83.967 36.733,84.167 36.785 C 84.401 36.846,84.500 37.012,84.500 37.344 C 84.500 37.604,84.595 37.877,84.712 37.950 C 84.828 38.023,85.014 38.290,85.125 38.542 C 85.236 38.794,85.403 39.000,85.496 39.000 C 85.590 39.000,85.667 39.139,85.667 39.308 C 85.667 39.477,85.817 39.789,86.000 40.000 C 86.183 40.211,86.333 40.485,86.333 40.609 C 86.333 40.732,86.446 40.833,86.583 40.833 C 86.749 40.833,86.833 40.999,86.833 41.325 C 86.833 41.595,86.929 41.877,87.045 41.950 C 87.162 42.023,87.348 42.290,87.458 42.542 C 87.569 42.794,87.736 43.000,87.830 43.000 C 87.923 43.000,88.000 43.188,88.000 43.417 C 88.000 43.676,88.094 43.833,88.250 43.833 C 88.388 43.833,88.500 43.977,88.500 44.153 C 88.500 44.650,88.680 45.000,88.934 45.000 C 89.069 45.000,89.167 45.170,89.167 45.405 C 89.167 45.627,89.275 45.918,89.408 46.051 C 89.541 46.184,89.701 46.496,89.763 46.743 C 89.825 46.991,89.979 47.233,90.105 47.281 C 90.230 47.330,90.333 47.480,90.333 47.617 C 90.333 47.753,90.483 47.904,90.667 47.952 C 90.917 48.017,91.000 48.179,91.000 48.603 C 91.000 48.913,91.077 49.167,91.171 49.167 C 91.265 49.167,91.414 49.356,91.502 49.588 C 91.590 49.819,91.775 50.052,91.914 50.105 C 92.060 50.161,92.167 50.408,92.167 50.690 C 92.167 50.969,92.273 51.218,92.417 51.273 C 92.554 51.326,92.667 51.462,92.667 51.575 C 92.667 51.689,92.817 51.917,93.000 52.083 C 93.183 52.249,93.333 52.561,93.333 52.776 C 93.333 53.012,93.432 53.167,93.583 53.167 C 93.721 53.167,93.833 53.311,93.833 53.486 C 93.833 53.961,94.009 54.333,94.233 54.333 C 94.342 54.333,94.503 54.577,94.591 54.875 C 94.973 56.173,97.333 54.956,97.333 53.460 C 97.333 53.299,97.410 53.167,97.503 53.167 C 97.596 53.167,97.797 52.904,97.950 52.583 C 98.103 52.262,98.290 52.000,98.364 52.000 C 98.439 52.000,98.500 51.737,98.500 51.417 C 98.500 51.021,98.577 50.833,98.739 50.833 C 98.870 50.833,99.023 50.690,99.078 50.515 C 99.134 50.341,99.289 50.155,99.423 50.104 C 99.563 50.050,99.667 49.795,99.667 49.505 C 99.667 49.164,99.749 49.000,99.921 49.000 C 100.069 49.000,100.216 48.795,100.273 48.511 C 100.327 48.242,100.475 47.981,100.602 47.933 C 100.729 47.884,100.833 47.703,100.833 47.531 C 100.833 47.359,100.983 47.083,101.167 46.917 C 101.350 46.751,101.500 46.485,101.500 46.325 C 101.500 46.166,101.612 45.992,101.750 45.940 C 101.888 45.887,102.000 45.672,102.000 45.462 C 102.000 45.252,102.150 44.987,102.333 44.872 C 102.517 44.758,102.667 44.485,102.667 44.266 C 102.667 44.048,102.779 43.826,102.917 43.773 C 103.054 43.720,103.167 43.574,103.167 43.448 C 103.167 43.322,103.317 43.083,103.500 42.917 C 103.683 42.751,103.833 42.447,103.833 42.242 C 103.833 42.037,103.946 41.826,104.083 41.773 C 104.221 41.720,104.333 41.496,104.333 41.275 C 104.333 41.012,104.449 40.842,104.667 40.785 C 104.909 40.722,105.000 40.558,105.000 40.182 C 105.000 39.882,105.087 39.666,105.208 39.665 C 105.438 39.664,106.167 38.487,106.167 38.118 C 106.167 37.990,106.317 37.749,106.500 37.583 C 106.683 37.417,106.833 37.178,106.833 37.052 C 106.833 36.926,106.946 36.780,107.083 36.727 C 107.235 36.669,107.333 36.417,107.333 36.085 C 107.333 35.679,107.419 35.517,107.667 35.452 C 107.909 35.388,108.000 35.224,108.000 34.849 C 108.000 34.502,108.082 34.333,108.250 34.333 C 108.388 34.333,108.500 34.218,108.500 34.078 C 108.500 33.938,108.608 33.781,108.740 33.731 C 108.872 33.680,109.029 33.415,109.089 33.141 C 109.149 32.868,109.304 32.604,109.432 32.554 C 109.561 32.505,109.667 32.357,109.667 32.225 C 109.667 32.094,109.817 31.825,110.000 31.628 C 110.183 31.431,110.333 31.167,110.333 31.040 C 110.333 30.913,110.446 30.697,110.583 30.560 C 110.721 30.422,110.833 30.165,110.833 29.988 C 110.833 29.811,110.938 29.667,111.066 29.667 C 111.320 29.667,111.500 29.316,111.500 28.820 C 111.500 28.644,111.612 28.500,111.750 28.500 C 111.888 28.500,112.000 28.381,112.000 28.235 C 112.000 28.089,112.150 27.779,112.333 27.545 C 112.517 27.312,112.667 27.027,112.667 26.912 C 112.667 26.797,112.779 26.659,112.917 26.606 C 113.054 26.554,113.167 26.321,113.167 26.089 C 113.167 25.857,113.317 25.517,113.500 25.333 C 113.683 25.150,113.833 24.850,113.833 24.667 C 113.833 24.481,113.944 24.333,114.083 24.333 C 114.252 24.333,114.333 24.165,114.333 23.818 C 114.333 23.442,114.424 23.278,114.667 23.215 C 114.851 23.167,115.000 22.988,115.000 22.814 C 115.000 22.641,115.107 22.500,115.237 22.500 C 115.367 22.500,115.522 22.280,115.581 22.012 C 115.640 21.743,115.796 21.434,115.927 21.324 C 116.059 21.215,116.167 21.023,116.167 20.896 C 116.167 20.770,116.317 20.517,116.500 20.333 C 116.683 20.150,116.833 19.859,116.833 19.687 C 116.833 19.515,116.946 19.281,117.083 19.167 C 117.221 19.053,117.333 18.854,117.333 18.724 C 117.333 18.595,117.441 18.448,117.573 18.398 C 117.705 18.347,117.860 18.093,117.917 17.833 C 117.974 17.574,118.128 17.320,118.260 17.269 C 118.396 17.217,118.500 16.958,118.500 16.672 C 118.500 16.334,118.583 16.167,118.750 16.167 C 118.888 16.167,119.000 16.064,119.000 15.939 C 119.000 15.814,119.150 15.521,119.333 15.288 C 119.755 14.752,119.760 14.228,119.344 14.006 C 119.020 13.833,112.123 13.776,111.708 13.944 " stroke="none" fill="#0489fc" fill-rule="evenodd"></path><path id="path2" d="" stroke="none" fill="#bc100fc" fill-rule="evenodd"></path><path id="path3" d="" stroke="none" fill="#bc100fc" fill-rule="evenodd"></path><path id="path4" d="" stroke="none" fill="#bc100fc" fill-rule="evenodd"></path></g></svg>